# xmcd
#
# Track frame offsets: 
#        150
#        45235
#        90333
#        127667
#        221979
#        247905
#        298869
#
# Disc length: 4681 seconds
#
# Revision: 1
# Processed by: cddbd v1.5.2PL0 Copyright (c) Steve Scherf et al.
# Submitted via: ExactAudioCopy v0.95b3
#
DISCID=58124707
DTITLE=The Allman Brothers Band - Play All Night: Live At The Beacon T
DTITLE=heatre 1992 [CD2]
DYEAR=2014
DGENRE=Rock
TTITLE0=Guitar Intro/Hoochie Coochie Man
TTITLE1=Jessica
TTITLE2=Get On With Your Life
TTITLE3=In Memory Of Elizabeth Reed
TTITLE4=Revival
TTITLE5=Dreams
TTITLE6=Whipping Post
EXTD=
EXTT0=
EXTT1=
EXTT2=
EXTT3=
EXTT4=
EXTT5=
EXTT6=
PLAYORDER=
